<svg id="visual" viewBox="0 0 960 300" width="960" height="300" xmlns="http://www.w3.org/2000/svg" xmlns:xlink="http://www.w3.org/1999/xlink" version="1.1"><rect x="0" y="0" width="960" height="300" fill="#202731"></rect><path d="M0 156L20 163.3C40 170.7 80 185.3 120 188.7C160 192 200 184 240 183.5C280 183 320 190 360 185.7C400 181.3 440 165.7 480 163C520 160.3 560 170.7 600 171C640 171.3 680 161.7 720 164.5C760 167.3 800 182.7 840 192.2C880 201.7 920 205.3 940 207.2L960 209L960 0L940 0C920 0 880 0 840 0C800 0 760 0 720 0C680 0 640 0 600 0C560 0 520 0 480 0C440 0 400 0 360 0C320 0 280 0 240 0C200 0 160 0 120 0C80 0 40 0 20 0L0 0Z" fill="#a613c7"></path><path d="M0 164L20 158.5C40 153 80 142 120 139.5C160 137 200 143 240 146.5C280 150 320 151 360 149.2C400 147.3 440 142.7 480 135.7C520 128.7 560 119.3 600 121.8C640 124.3 680 138.7 720 140.8C760 143 800 133 840 131.8C880 130.7 920 138.3 940 142.2L960 146L960 0L940 0C920 0 880 0 840 0C800 0 760 0 720 0C680 0 640 0 600 0C560 0 520 0 480 0C440 0 400 0 360 0C320 0 280 0 240 0C200 0 160 0 120 0C80 0 40 0 20 0L0 0Z" fill="#cc00ae"></path><path d="M0 109L20 104.2C40 99.3 80 89.7 120 85.2C160 80.7 200 81.3 240 80.3C280 79.3 320 76.7 360 79C400 81.3 440 88.7 480 93.8C520 99 560 102 600 104.8C640 107.7 680 110.3 720 109.7C760 109 800 105 840 101.8C880 98.7 920 96.3 940 95.2L960 94L960 0L940 0C920 0 880 0 840 0C800 0 760 0 720 0C680 0 640 0 600 0C560 0 520 0 480 0C440 0 400 0 360 0C320 0 280 0 240 0C200 0 160 0 120 0C80 0 40 0 20 0L0 0Z" fill="#e50096"></path><path d="M0 89L20 86C40 83 80 77 120 74.5C160 72 200 73 240 71C280 69 320 64 360 60.5C400 57 440 55 480 56.3C520 57.7 560 62.3 600 65.2C640 68 680 69 720 74.7C760 80.3 800 90.7 840 92.5C880 94.3 920 87.7 940 84.3L960 81L960 0L940 0C920 0 880 0 840 0C800 0 760 0 720 0C680 0 640 0 600 0C560 0 520 0 480 0C440 0 400 0 360 0C320 0 280 0 240 0C200 0 160 0 120 0C80 0 40 0 20 0L0 0Z" fill="#f5007e"></path><path d="M0 43L20 46.3C40 49.7 80 56.3 120 55.3C160 54.3 200 45.7 240 41C280 36.3 320 35.7 360 31C400 26.3 440 17.7 480 12.8C520 8 560 7 600 9C640 11 680 16 720 24C760 32 800 43 840 46.5C880 50 920 46 940 44L960 42L960 0L940 0C920 0 880 0 840 0C800 0 760 0 720 0C680 0 640 0 600 0C560 0 520 0 480 0C440 0 400 0 360 0C320 0 280 0 240 0C200 0 160 0 120 0C80 0 40 0 20 0L0 0Z" fill="#ff0066"></path></svg>