<svg id="visual" viewBox="0 0 960 300" width="960" height="300" xmlns="http://www.w3.org/2000/svg" xmlns:xlink="http://www.w3.org/1999/xlink" version="1.1"><rect x="0" y="0" width="960" height="300" fill="#202731"></rect><path d="M0 182L22.8 181.7C45.7 181.3 91.3 180.7 137 176C182.7 171.3 228.3 162.7 274 156.7C319.7 150.7 365.3 147.3 411.2 147C457 146.7 503 149.3 548.8 145.5C594.7 141.7 640.3 131.3 686 131.2C731.7 131 777.3 141 823 147.5C868.7 154 914.3 157 937.2 158.5L960 160L960 0L937.2 0C914.3 0 868.7 0 823 0C777.3 0 731.7 0 686 0C640.3 0 594.7 0 548.8 0C503 0 457 0 411.2 0C365.3 0 319.7 0 274 0C228.3 0 182.7 0 137 0C91.3 0 45.7 0 22.8 0L0 0Z" fill="#ff6f61"></path><path d="M0 102L22.8 108.7C45.7 115.3 91.3 128.7 137 138C182.7 147.3 228.3 152.7 274 147.2C319.7 141.7 365.3 125.3 411.2 120.5C457 115.7 503 122.3 548.8 124.2C594.7 126 640.3 123 686 118.2C731.7 113.3 777.3 106.7 823 107.7C868.7 108.7 914.3 117.3 937.2 121.7L960 126L960 0L937.2 0C914.3 0 868.7 0 823 0C777.3 0 731.7 0 686 0C640.3 0 594.7 0 548.8 0C503 0 457 0 411.2 0C365.3 0 319.7 0 274 0C228.3 0 182.7 0 137 0C91.3 0 45.7 0 22.8 0L0 0Z" fill="#f76455"></path><path d="M0 105L22.8 103.2C45.7 101.3 91.3 97.7 137 94.3C182.7 91 228.3 88 274 85.7C319.7 83.3 365.3 81.7 411.2 84.7C457 87.7 503 95.3 548.8 95.8C594.7 96.3 640.3 89.7 686 84.5C731.7 79.3 777.3 75.7 823 79.3C868.7 83 914.3 94 937.2 99.5L960 105L960 0L937.2 0C914.3 0 868.7 0 823 0C777.3 0 731.7 0 686 0C640.3 0 594.7 0 548.8 0C503 0 457 0 411.2 0C365.3 0 319.7 0 274 0C228.3 0 182.7 0 137 0C91.3 0 45.7 0 22.8 0L0 0Z" fill="#ee5849"></path><path d="M0 55L22.8 56.8C45.7 58.7 91.3 62.3 137 67C182.7 71.7 228.3 77.3 274 77C319.7 76.7 365.3 70.3 411.2 65.3C457 60.3 503 56.7 548.8 57.2C594.7 57.7 640.3 62.3 686 68.5C731.7 74.7 777.3 82.3 823 78.5C868.7 74.7 914.3 59.3 937.2 51.7L960 44L960 0L937.2 0C914.3 0 868.7 0 823 0C777.3 0 731.7 0 686 0C640.3 0 594.7 0 548.8 0C503 0 457 0 411.2 0C365.3 0 319.7 0 274 0C228.3 0 182.7 0 137 0C91.3 0 45.7 0 22.8 0L0 0Z" fill="#e64c3d"></path><path d="M0 43L22.8 43C45.7 43 91.3 43 137 43.8C182.7 44.7 228.3 46.3 274 42.3C319.7 38.3 365.3 28.7 411.2 28.5C457 28.3 503 37.7 548.8 41.2C594.7 44.7 640.3 42.3 686 42.8C731.7 43.3 777.3 46.7 823 46.3C868.7 46 914.3 42 937.2 40L960 38L960 0L937.2 0C914.3 0 868.7 0 823 0C777.3 0 731.7 0 686 0C640.3 0 594.7 0 548.8 0C503 0 457 0 411.2 0C365.3 0 319.7 0 274 0C228.3 0 182.7 0 137 0C91.3 0 45.7 0 22.8 0L0 0Z" fill="#dd3f31"></path></svg>