<svg id="visual" viewBox="0 0 900 300" width="900" height="300" xmlns="http://www.w3.org/2000/svg" xmlns:xlink="http://www.w3.org/1999/xlink" version="1.1"><rect x="0" y="0" width="900" height="300" fill="#FF0066"></rect><g transform="translate(442.5161550108374 156.44097286034628)"><path d="M63.9 -114C78.5 -102.3 83 -76.4 89.1 -55C95.3 -33.7 103.2 -16.8 110.2 4.1C117.3 25 123.6 50 113.4 64.3C103.1 78.6 76.3 82.2 54.7 89C33 95.8 16.5 105.9 -1.4 108.4C-19.3 110.8 -38.7 105.6 -55.4 96C-72.2 86.3 -86.3 72.2 -94.3 55.4C-102.3 38.7 -104.2 19.3 -103.7 0.3C-103.3 -18.8 -100.6 -37.7 -89.2 -48.5C-77.7 -59.3 -57.6 -62.1 -41.3 -72.9C-25 -83.6 -12.5 -102.3 6.1 -112.9C24.7 -123.4 49.3 -125.8 63.9 -114" fill="#BB004B"></path></g></svg>